<?xml version="1.0" standalone="no"?><svg xmlns="http://www.w3.org/2000/svg" viewBox="0 0 1440 320"><path fill="#dc3545" fill-opacity="1" d="M0,320L16,320C32,320,64,320,96,314.7C128,309,160,299,192,250.7C224,203,256,117,288,106.7C320,96,352,160,384,176C416,192,448,160,480,160C512,160,544,192,576,181.3C608,171,640,117,672,90.7C704,64,736,64,768,53.3C800,43,832,21,864,21.3C896,21,928,43,960,64C992,85,1024,107,1056,149.3C1088,192,1120,256,1152,234.7C1184,213,1216,107,1248,80C1280,53,1312,107,1344,117.3C1376,128,1408,96,1424,80L1440,64L1440,0L1424,0C1408,0,1376,0,1344,0C1312,0,1280,0,1248,0C1216,0,1184,0,1152,0C1120,0,1088,0,1056,0C1024,0,992,0,960,0C928,0,896,0,864,0C832,0,800,0,768,0C736,0,704,0,672,0C640,0,608,0,576,0C544,0,512,0,480,0C448,0,416,0,384,0C352,0,320,0,288,0C256,0,224,0,192,0C160,0,128,0,96,0C64,0,32,0,16,0L0,0Z"></path></svg>